<svg width="128" height="26" viewBox="0 0 128 26" fill="none" xmlns="http://www.w3.org/2000/svg">
<path d="M13.5546 7.1C13.5546 8.11667 13.3277 9.05 12.874 9.9C12.4202 10.7333 11.7234 11.4083 10.7835 11.925C9.84361 12.4417 8.67684 12.7 7.28321 12.7H4.70659V19H0.549988V1.45H7.28321C8.64443 1.45 9.79499 1.69167 10.7349 2.175C11.6748 2.65833 12.3797 3.325 12.8497 4.175C13.3196 5.025 13.5546 6 13.5546 7.1ZM6.96721 9.3C7.76126 9.3 8.35274 9.10833 8.74166 8.725C9.13059 8.34167 9.32505 7.8 9.32505 7.1C9.32505 6.4 9.13059 5.85833 8.74166 5.475C8.35274 5.09167 7.76126 4.9 6.96721 4.9H4.70659V9.3H6.96721Z" fill="white"/>
<path d="M21.2364 19.2C20.0534 19.2 19.0001 18.9917 18.0764 18.575C17.1527 18.1583 16.4234 17.5917 15.8887 16.875C15.3539 16.1417 15.0541 15.325 14.9893 14.425H19.0973C19.1459 14.9083 19.3647 15.3 19.7536 15.6C20.1425 15.9 20.6206 16.05 21.1877 16.05C21.7063 16.05 22.1033 15.95 22.3788 15.75C22.6705 15.5333 22.8164 15.2583 22.8164 14.925C22.8164 14.525 22.6138 14.2333 22.2087 14.05C21.8035 13.85 21.1472 13.6333 20.2398 13.4C19.2674 13.1667 18.4572 12.925 17.809 12.675C17.1608 12.4083 16.6017 12 16.1318 11.45C15.6618 10.8833 15.4268 10.125 15.4268 9.175C15.4268 8.375 15.6375 7.65 16.0588 7C16.4964 6.33333 17.1284 5.80833 17.9548 5.425C18.7975 5.04167 19.7941 4.85 20.9447 4.85C22.6462 4.85 23.9831 5.28333 24.9554 6.15C25.9439 7.01667 26.5111 8.16667 26.657 9.6H22.8164C22.7515 9.11667 22.5409 8.73333 22.1844 8.45C21.8441 8.16667 21.3903 8.025 20.8231 8.025C20.337 8.025 19.9643 8.125 19.705 8.325C19.4457 8.50833 19.3161 8.76667 19.3161 9.1C19.3161 9.5 19.5186 9.8 19.9237 10C20.3451 10.2 20.9933 10.4 21.8684 10.6C22.8731 10.8667 23.6914 11.1333 24.3234 11.4C24.9554 11.65 25.5064 12.0667 25.9764 12.65C26.4625 13.2167 26.7137 13.9833 26.7299 14.95C26.7299 15.7667 26.503 16.5 26.0493 17.15C25.6117 17.7833 24.9716 18.2833 24.129 18.65C23.3025 19.0167 22.3383 19.2 21.2364 19.2Z" fill="white"/>
<path d="M43.1282 5.05L34.6206 25.625H30.148L33.2593 18.525L27.7415 5.05H32.3843L35.52 13.775L38.6313 5.05H43.1282Z" fill="white"/>
<path d="M43.8049 12.025C43.8049 10.575 44.0885 9.30833 44.6556 8.225C45.239 7.14167 46.0412 6.30833 47.0621 5.725C48.0992 5.14167 49.2822 4.85 50.611 4.85C52.3125 4.85 53.7305 5.30833 54.8648 6.225C56.0154 7.14167 56.7689 8.43333 57.1255 10.1H52.7015C52.3288 9.03333 51.6076 8.5 50.5381 8.5C49.7765 8.5 49.1688 8.80833 48.715 9.425C48.2613 10.025 48.0344 10.8917 48.0344 12.025C48.0344 13.1583 48.2613 14.0333 48.715 14.65C49.1688 15.25 49.7765 15.55 50.5381 15.55C51.6076 15.55 52.3288 15.0167 52.7015 13.95H57.1255C56.7689 15.5833 56.0154 16.8667 54.8648 17.8C53.7143 18.7333 52.2963 19.2 50.611 19.2C49.2822 19.2 48.0992 18.9083 47.0621 18.325C46.0412 17.7417 45.239 16.9083 44.6556 15.825C44.0885 14.7417 43.8049 13.475 43.8049 12.025Z" fill="white"/>
<path d="M67.6864 4.9C69.2421 4.9 70.4899 5.43333 71.4297 6.5C72.3696 7.55 72.8396 9 72.8396 10.85V19H68.7073V11.425C68.7073 10.4917 68.4723 9.76667 68.0024 9.25C67.5324 8.73333 66.9004 8.475 66.1064 8.475C65.3123 8.475 64.6803 8.73333 64.2104 9.25C63.7404 9.76667 63.5055 10.4917 63.5055 11.425V19H59.3489V0.5H63.5055V6.925C63.9268 6.30833 64.5021 5.81667 65.2313 5.45C65.9605 5.08333 66.7789 4.9 67.6864 4.9Z" fill="white"/>
<path d="M81.9022 19.2C80.5734 19.2 79.3742 18.9083 78.3046 18.325C77.2513 17.7417 76.4167 16.9083 75.8009 15.825C75.2014 14.7417 74.9016 13.475 74.9016 12.025C74.9016 10.5917 75.2095 9.33333 75.8253 8.25C76.4411 7.15 77.2837 6.30833 78.3532 5.725C79.4228 5.14167 80.622 4.85 81.9508 4.85C83.2796 4.85 84.4788 5.14167 85.5483 5.725C86.6178 6.30833 87.4605 7.15 88.0763 8.25C88.6921 9.33333 89 10.5917 89 12.025C89 13.4583 88.684 14.725 88.052 15.825C87.4362 16.9083 86.5854 17.7417 85.4997 18.325C84.4302 18.9083 83.231 19.2 81.9022 19.2ZM81.9022 15.5C82.6962 15.5 83.3687 15.2 83.9197 14.6C84.4869 14 84.7705 13.1417 84.7705 12.025C84.7705 10.9083 84.495 10.05 83.944 9.45C83.4092 8.85 82.7448 8.55 81.9508 8.55C81.1405 8.55 80.468 8.85 79.9332 9.45C79.3985 10.0333 79.1311 10.8917 79.1311 12.025C79.1311 13.1417 79.3904 14 79.9089 14.6C80.4437 15.2 81.1081 15.5 81.9022 15.5Z" fill="white"/>
<path d="M101.075 16.45H94.525L93.475 19.55H89L95.35 2H100.3L106.65 19.55H102.125L101.075 16.45ZM99.975 13.15L97.8 6.725L95.65 13.15H99.975Z" fill="url(#paint0_linear_57_54)"/>
<path d="M112.858 7.925C113.358 7.15833 113.983 6.55833 114.733 6.125C115.483 5.675 116.316 5.45 117.233 5.45V9.975H116.058C114.991 9.975 114.191 10.2083 113.658 10.675C113.124 11.125 112.858 11.925 112.858 13.075V19.55H108.583V5.6H112.858V7.925Z" fill="url(#paint1_linear_57_54)"/>
<path d="M127.051 15.925V19.55H124.876C123.326 19.55 122.118 19.175 121.251 18.425C120.384 17.6583 119.951 16.4167 119.951 14.7V9.15H118.251V5.6H119.951V2.2H124.226V5.6H127.026V9.15H124.226V14.75C124.226 15.1667 124.326 15.4667 124.526 15.65C124.726 15.8333 125.059 15.925 125.526 15.925H127.051Z" fill="url(#paint2_linear_57_54)"/>
<defs>
<linearGradient id="paint0_linear_57_54" x1="121.343" y1="2" x2="114.093" y2="25.289" gradientUnits="userSpaceOnUse">
<stop stop-color="#B75CFF"/>
<stop offset="1" stop-color="#671AE4"/>
</linearGradient>
<linearGradient id="paint1_linear_57_54" x1="121.343" y1="2" x2="114.093" y2="25.289" gradientUnits="userSpaceOnUse">
<stop stop-color="#B75CFF"/>
<stop offset="1" stop-color="#671AE4"/>
</linearGradient>
<linearGradient id="paint2_linear_57_54" x1="121.343" y1="2" x2="114.093" y2="25.289" gradientUnits="userSpaceOnUse">
<stop stop-color="#B75CFF"/>
<stop offset="1" stop-color="#671AE4"/>
</linearGradient>
</defs>
</svg>
